<svg id="qc_partners_Icon" xmlns="http://www.w3.org/2000/svg" width="339.225" height="330.769" viewBox="0 0 339.225 330.769">
  <g id="Group_936" data-name="Group 936" transform="translate(-74.056 -107.908)">
    <g id="Group_935" data-name="Group 935">
      <g id="Group_932" data-name="Group 932">
        <path id="Path_5081" data-name="Path 5081" d="M412.2,315.1c-3.168-11.238-12.144-20.745-18.826-30.02l-22.161-30.761-11.843,4.193,34.568,48.021H265.27l-34.62-48.531,37.856-17.427-7.123-13.722L223.941,248.6l-9.971-13.978,37.672-18.866-7.456-13.544L206.88,224.684,196.691,210.4l39.675-19.087-7.354-13.6-38.894,23.473L134.2,122.8H261.679l16.689,23.183,11.7-4.31-3.249-4.509s-16.159-29.326-41.893-28.727c0,0-96.954-1.2-110.719,0s-31.548,17.356-14.962,43.09L222.778,298.756c14.864,21.138,32.663,48.857,61.643,49.075.266,0,79.634.6,101.143,0C403.41,347.335,417.336,333.312,412.2,315.1ZM175.331,114.012h45.8a1.929,1.929,0,0,1,0,3.858h-45.8a1.929,1.929,0,0,1,0-3.858Zm-44.646,38.294a4.638,4.638,0,1,1,7.6-5.32l16.459,23.506-7.287,5.765Zm44.99,56.167a4.639,4.639,0,0,1-6.46-1.14l-18.207-26,7.285-5.765,18.52,26.449A4.638,4.638,0,0,1,175.675,208.473ZM344.144,334.545c-10.223.086-18.187-4.229-17.787-9.637s9.011-9.861,19.234-9.947,18.186,4.229,17.787,9.637S354.367,334.459,344.144,334.545Z" fill="#fff"/>
        <path id="Path_5082" data-name="Path 5082" d="M173.489,244.8,74.056,304.691,178.74,252.265Z" fill="#fff"/>
        <path id="Path_5083" data-name="Path 5083" d="M236.8,151.852a7.281,7.281,0,0,0-8.648-2.894L190.877,162.73a7.282,7.282,0,0,0,5.047,13.661l31.795-11.746,59.665,92.828a7.282,7.282,0,0,0,8.648,2.893l104.53-38.615a7.282,7.282,0,0,0,4.692-7.809l-12-88.493a7.282,7.282,0,0,0-9.739-5.852L248.2,169.585Zm34.851,54.222,33.2-12.265,6.755,13.942-31.42,11.607Zm24.817,38.612L285.329,227.35l30.348-11.211,8.816,18.2Zm36.762-13.58-8.816-18.2,29.246-10.8,4.854,19.658Zm54.03-41.412,2.767,20.43-22.758,8.407-4.854-19.659Zm-3.4-25.072,2.12,15.654-25.807,9.533-3.72-15.063Zm-3.82-28.2,1.576,19.141-27.4,10.122-4.463-18.074Zm-28.622,56.624-31.072,11.478L313.6,190.58l34.107-12.6Zm-10.421-42.2,4.463,18.074-35.933,13.275-8.105-16.729Zm-84.64,31.268,36.324-13.419,8.105,16.729-34.276,12.661-11.7-18.207Z" fill="#fff"/>
        <path id="Path_5084" data-name="Path 5084" d="M120.139,308.88l74.344-34.225-4.467-6.354Z" fill="#fff"/>
        <path id="Path_5085" data-name="Path 5085" d="M89.018,262.2l72.263-34.764-4.367-6.211Z" fill="#fff"/>
        <path id="Path_5086" data-name="Path 5086" d="M315.838,259.19a13.594,13.594,0,1,0,17.453,8.037A13.6,13.6,0,0,0,315.838,259.19Z" fill="#fff"/>
        <path id="Path_5087" data-name="Path 5087" d="M382.5,234.563a13.594,13.594,0,1,0,17.467,8.031A13.6,13.6,0,0,0,382.5,234.563Z" fill="#fff"/>
      </g>
  
    </g>
  </g>
</svg>
